<svg xmlns="http://www.w3.org/2000/svg" width="10" height="11" viewBox="0 0 10 11">
    <path fill="#FFF" fill-rule="evenodd" d="M9.075 3.162a.453.453 0 0 0-.458-.424H7.478a.17.17 0 0 1-.177-.176V1.553C7.3.997 6.843.529 6.266.529H3.901c-.562 0-1.035.454-1.035 1.024v.994a.17.17 0 0 1-.178.176H1.61a.463.463 0 0 0-.458.424l-.31 7.15a.452.452 0 0 0 .458.468h7.643a.47.47 0 0 0 .458-.468l-.325-7.135zM3.693 1.956c0-.279.212-.496.484-.496h1.886c.272 0 .484.217.484.496v.713c0 .109-.076.187-.182.187H3.89c-.105 0-.18-.078-.18-.187v-.713h-.016z"/>
</svg>
