<svg xmlns="http://www.w3.org/2000/svg" width="47" height="47" viewBox="0 0 47 47">
    <g fill="none" fill-rule="evenodd">
        <path fill="#000" d="M6.912 39.75a.905.905 0 0 1-.907-.904c0-.499.406-.903.907-.903.5 0 .906.404.906.903a.905.905 0 0 1-.906.903zm-4.76-7.134a.905.905 0 0 1-.522-1.168.905.905 0 0 1 1.17-.518c.467.18.701.703.523 1.168a.905.905 0 0 1-1.17.518zM.301 24.253a.905.905 0 0 1-.07-1.278.905.905 0 0 1 1.278-.064.905.905 0 0 1 .07 1.278.905.905 0 0 1-1.278.064zm1.298-8.478a.905.905 0 0 1 .414-1.211.905.905 0 0 1 1.21.419c.22.45.034.992-.415 1.21a.905.905 0 0 1-1.209-.418zM5.89 8.35a.905.905 0 0 1 .82-.982.905.905 0 0 1 .98.825.905.905 0 0 1-.821.982.905.905 0 0 1-.979-.825zm6.692-5.38a.905.905 0 0 1 1.119-.622c.48.137.756.639.618 1.12a.905.905 0 0 1-1.118.623.905.905 0 0 1-.619-1.12zm8.19-2.608a.905.905 0 0 1 1.268-.18c.398.3.477.867.175 1.267a.905.905 0 0 1-1.267.18.905.905 0 0 1-.175-1.267zm8.583.514a.905.905 0 0 1 1.247.285.905.905 0 0 1-.29 1.247.905.905 0 0 1-1.248-.286.905.905 0 0 1 .29-1.246zm7.815 3.567a.905.905 0 0 1 1.062.713.905.905 0 0 1-.717 1.06.905.905 0 0 1-1.063-.714.905.905 0 0 1 .718-1.06zm6.01 6.14c.49.096.812.57.717 1.06a.905.905 0 0 1-1.062.713.905.905 0 0 1-.718-1.06.905.905 0 0 1 1.062-.713zm3.36 7.885a.905.905 0 0 1 .291 1.246.905.905 0 0 1-1.247.286.905.905 0 0 1-.29-1.247.905.905 0 0 1 1.247-.285zm.277 8.562c.301.4.223.967-.176 1.267a.905.905 0 0 1-1.267-.18.905.905 0 0 1 .176-1.268.905.905 0 0 1 1.267.18zm-2.847 8.082a.905.905 0 0 1-.618 1.12.905.905 0 0 1-1.118-.622.905.905 0 0 1 .618-1.12.905.905 0 0 1 1.118.622zm-5.584 6.513a.905.905 0 0 1-.978.824.905.905 0 0 1-.821-.982.905.905 0 0 1 .979-.824.905.905 0 0 1 .82.982zm-7.567 4.064a.905.905 0 0 1-1.21.419.905.905 0 0 1-.414-1.211.905.905 0 0 1 1.21-.42c.448.22.634.762.414 1.212zm-8.54 1.077A.905.905 0 0 1 21 46.702a.905.905 0 0 1 .07-1.278.905.905 0 0 1 1.278.065.905.905 0 0 1-.07 1.277zm-8.343-2.078a.905.905 0 0 1-1.17-.518.905.905 0 0 1 .523-1.168.905.905 0 0 1 1.17.518.905.905 0 0 1-.523 1.168z"/>
        <circle cx="24" cy="24" r="15" fill="#fff"/>
        <path fill="#000" d="M29.506 19.858a.679.679 0 0 0-.696-.622h-1.728c-.158 0-.27-.108-.27-.258V17.5c0-.814-.696-1.5-1.571-1.5h-3.593c-.853 0-1.571.664-1.571 1.5v1.457c0 .15-.113.258-.27.258h-1.639c-.36 0-.674.278-.696.621l-.47 10.479c-.023.364.291.685.696.685h11.606a.702.702 0 0 0 .696-.686l-.494-10.456zm-8.173-1.767c0-.41.321-.727.734-.727h2.866c.413 0 .734.318.734.727v1.045c0 .16-.115.273-.276.273h-3.76a.264.264 0 0 1-.275-.273V18.09h-.023z"/>
    </g>
</svg>
