<svg xmlns="http://www.w3.org/2000/svg" width="88" height="89" viewBox="0 0 88 89">
    <path fill="#232323" fill-rule="evenodd" d="M12.451 75.056a1.033 1.033 0 0 1-1.027-1.039c0-.574.46-1.04 1.027-1.04s1.027.466 1.027 1.04c0 .574-.46 1.04-1.027 1.04zM3.643 61.383a1.033 1.033 0 0 1-.587-1.338 1.033 1.033 0 0 1 1.332-.602c.53.203.792.802.586 1.338a1.033 1.033 0 0 1-1.331.602zM.333 45.43a1.033 1.033 0 0 1-.07-1.46 1.033 1.033 0 0 1 1.46-.085c.421.38.452 1.033.068 1.46a1.033 1.033 0 0 1-1.459.085zm2.624-16.096a1.033 1.033 0 0 1 .484-1.379 1.033 1.033 0 0 1 1.384.468c.249.51.032 1.127-.484 1.379a1.033 1.033 0 0 1-1.384-.468zm8.227-14.036a1.033 1.033 0 0 1 .946-1.114 1.033 1.033 0 0 1 1.124.933 1.033 1.033 0 0 1-.945 1.114 1.033 1.033 0 0 1-1.125-.933zM23.888 5.204c.157-.546.73-.86 1.282-.702.552.159.872.729.716 1.274-.156.546-.73.86-1.282.702a1.033 1.033 0 0 1-.716-1.274zM39.354.414c.342-.453.99-.54 1.448-.195.459.345.553.992.212 1.446-.342.453-.99.54-1.448.195a1.033 1.033 0 0 1-.212-1.446zm16.14 1.16c.48-.3 1.117-.15 1.421.337.305.487.161 1.125-.32 1.426-.481.3-1.118.15-1.422-.337a1.033 1.033 0 0 1 .32-1.425zm14.633 6.954a1.033 1.033 0 0 1 1.207.824 1.033 1.033 0 0 1-.81 1.217 1.033 1.033 0 0 1-1.207-.824 1.033 1.033 0 0 1 .81-1.217zm11.17 11.811c.557.109.92.653.81 1.216-.11.564-.65.933-1.207.824a1.033 1.033 0 0 1-.81-1.216c.11-.563.65-.932 1.207-.824zm6.163 15.073c.481.301.625.94.32 1.426-.304.487-.94.637-1.421.337a1.033 1.033 0 0 1-.321-1.426c.304-.487.94-.637 1.422-.337zm.342 16.296c.342.454.247 1.1-.211 1.446a1.033 1.033 0 0 1-1.448-.195 1.033 1.033 0 0 1 .211-1.446 1.033 1.033 0 0 1 1.448.195zm-5.523 15.32a1.033 1.033 0 0 1-.716 1.273 1.033 1.033 0 0 1-1.282-.7 1.033 1.033 0 0 1 .716-1.275 1.033 1.033 0 0 1 1.282.701zM71.635 79.3c-.05.565-.553.983-1.125.933a1.033 1.033 0 0 1-.945-1.114c.05-.565.553-.983 1.124-.933.572.05.995.549.946 1.114zm-14.326 7.572c-.249.51-.868.72-1.384.468a1.033 1.033 0 0 1-.484-1.38c.249-.51.869-.719 1.385-.467.515.252.732.869.483 1.379zm-16.087 1.86a1.033 1.033 0 0 1-1.459-.085 1.033 1.033 0 0 1 .068-1.46 1.033 1.033 0 0 1 1.46.085c.383.427.353 1.08-.069 1.46zm-15.654-4.13A1.033 1.033 0 0 1 24.236 84a1.033 1.033 0 0 1 .587-1.339 1.033 1.033 0 0 1 1.331.602 1.033 1.033 0 0 1-.586 1.339z"/>
</svg>
